<svg xmlns="http://www.w3.org/2000/svg" xmlns:xlink="http://www.w3.org/1999/xlink" xml:space="preserve">
    <symbol id="vk" viewBox="0 0 30 17.1">
        <path d="M27.6,5.8c-3,4-3.4,3.7-0.9,6c2.4,2.2,2.9,3.3,3,3.5c0,0,1,1.8-1.1,1.8l-4,0.1c-0.9,0.2-2-0.6-2-0.6c-1.5-1-2.9-3.7-4-3.4 c0,0-1.1,0.4-1.1,2.8c0,0.5-0.2,0.8-0.2,0.8S17,17,16.5,17h-1.8c-4,0.3-7.4-3.4-7.4-3.4S3.4,9.7,0.1,1.8c-0.2-0.5,0-0.8,0-0.8 S0.3,0.8,1,0.8l4.3,0C5.7,0.8,6,1,6,1s0.3,0.2,0.4,0.5C7,3.3,8,4.9,8,4.9c1.6,3.2,2.6,3.8,3.2,3.4c0,0,0.8-0.5,0.6-4.4 c-0.1-1.4-0.5-2-0.5-2c-0.4-0.5-1-0.6-1.3-0.7c-0.2,0,0.2-0.6,0.7-0.8C11.5,0,12.8,0,14.4,0c1.3,0,1.6,0.1,2.1,0.2 c1.5,0.4,1,1.7,1,5c0,1.1-0.2,2.5,0.6,3c0.3,0.2,1.1,0,3.1-3.4c0,0,0.9-1.6,1.7-3.5C23,1,23.3,0.9,23.3,0.9s0.3-0.1,0.6-0.1l4.5,0 C29.8,0.6,30,1.2,30,1.2C30.2,1.9,29.5,3.4,27.6,5.8z"/>
    </symbol>
    <symbol id="git" viewBox="0 0 26 22">
        <path d="M25,17.4C23,21.6,17.3,22,13.3,22C9.1,22,3.1,21.6,1,17.4c-0.8-1.6-1-3.4-1-5.2C0,10,0.6,7.8,2.1,6.1 C1.8,5.2,1.7,4.3,1.7,3.4C1.7,2.2,2,1.1,2.5,0c2.5,0,4,1.1,5.9,2.5C10,2.2,11.6,2,13.3,2c1.5,0,3,0.2,4.4,0.5C19.5,1,21.1,0,23.5,0 c0.5,1.1,0.8,2.2,0.8,3.4c0,0.9-0.1,1.8-0.4,2.6C25.4,7.8,26,10,26,12.3C26,14,25.8,15.8,25,17.4z M18.5,10.5c-1,0-2,0.2-3,0.3 C14.6,11,13.8,11,13,11s-1.6,0-2.5-0.2c-1-0.1-2-0.3-3-0.3c-2.5,0-4,2.1-4,4.5c0,4.8,4.4,5.5,8.2,5.5h2.6c3.8,0,8.2-0.7,8.2-5.5 C22.5,12.6,21,10.5,18.5,10.5z M8,18c-1.4,0-2-1.9-2-3s0.6-3,2-3s2,1.9,2,3S9.4,18,8,18z M18,18c-1.4,0-2-1.9-2-3s0.6-3,2-3 s2,1.9,2,3S19.4,18,18,18z"/>
    </symbol>
    <symbol id="in" viewBox="0 0 24 22.9">
        <path d="M2.9,5.3L2.9,5.3C1.1,5.3,0,4.2,0,2.7C0,1.2,1.2,0,2.9,0c1.8,0,2.9,1.2,2.9,2.7C5.8,4.2,4.7,5.3,2.9,5.3z M5.5,22.9H0.3 V7.5h5.2V22.9z M24,22.9h-5.1v-8.3c0-2.1-0.8-3.5-2.6-3.5c-1.4,0-2.3,1-2.6,1.9c-0.1,0.3-0.2,0.8-0.2,1.3v8.6H8.3 c0.1-14,0-15.5,0-15.5h5.1v2.3h0c0.7-1.1,1.9-2.6,4.7-2.6c3.4,0,5.9,2.2,5.9,7L24,22.9L24,22.9z"/>
    </symbol>
</svg>
