<svg xmlns="http://www.w3.org/2000/svg" xmlns:xlink="http://www.w3.org/1999/xlink" xml:space="preserve">
    <symbol viewBox="0 0 14.1 15.4" id="login">
        <path d="M11.5,15.4H2.7c-1.6,0-2.7-1-2.7-2.6c0-2.3,0.5-5.8,3.5-5.8c0.3,0,1.6,1.4,3.6,1.4s3.3-1.4,3.6-1.4c2.9,0,3.5,3.5,3.5,5.8 C14.1,14.4,13.1,15.4,11.5,15.4z M7.1,7.7C4.9,7.7,3.2,6,3.2,3.9S4.9,0,7.1,0s3.9,1.7,3.9,3.9S9.2,7.7,7.1,7.7z"/>
    </symbol>
    <symbol viewBox="0 0 16.9 16" id="password">
        <path d="M15.7,12.1c-0.3,0-1.1-0.9-1.3-1.2l-1,1l2.2,2.2c0.2,0.2,0.3,0.4,0.3,0.7c0,0.6-0.6,1.2-1.2,1.2c-0.3,0-0.5-0.1-0.7-0.3 L7.4,9C6.3,9.7,5,10.3,3.7,10.3C1.5,10.3,0,8.8,0,6.6C0,3.3,3.3,0,6.6,0c2.2,0,3.7,1.5,3.7,3.7C10.3,5,9.7,6.3,9,7.4l3.6,3.6l1-1 c-0.2-0.2-1.2-1-1.2-1.3c0-0.2,0.9-1.2,1.2-1.2c0.1,0,0.2,0,0.2,0.1c0.4,0.4,3.2,3,3.2,3.3C16.9,11.2,16,12.1,15.7,12.1z M6.4,1.9 c-1.1,0-1.9,0.9-1.9,1.9c0,0.3,0.1,0.6,0.2,0.8C4.4,4.6,4.1,4.5,3.9,4.5c-1.1,0-1.9,0.9-1.9,1.9s0.9,1.9,1.9,1.9s1.9-0.9,1.9-1.9 c0-0.3-0.1-0.6-0.2-0.8c0.3,0.1,0.5,0.2,0.8,0.2c1.1,0,1.9-0.9,1.9-1.9S7.5,1.9,6.4,1.9z"/>
    </symbol>
</svg>
