<?xml version="1.0" encoding="utf-8"?>
<!-- Generator: Adobe Illustrator 21.1.0, SVG Export Plug-In . SVG Version: 6.00 Build 0)  -->
<svg version="1.1" id="Layer_1" xmlns="http://www.w3.org/2000/svg" xmlns:xlink="http://www.w3.org/1999/xlink" x="0px" y="0px"
	 viewBox="0 0 30 17.1" style="enable-background:new 0 0 30 17.1;" xml:space="preserve">
<g>
	<path d="M27.6,5.8c-3,4-3.4,3.7-0.9,6c2.4,2.2,2.9,3.3,3,3.5c0,0,1,1.8-1.1,1.8l-4,0.1c-0.9,0.2-2-0.6-2-0.6c-1.5-1-2.9-3.7-4-3.4
		c0,0-1.1,0.4-1.1,2.8c0,0.5-0.2,0.8-0.2,0.8S17,17,16.5,17h-1.8c-4,0.3-7.4-3.4-7.4-3.4S3.4,9.7,0.1,1.8c-0.2-0.5,0-0.8,0-0.8
		S0.3,0.8,1,0.8l4.3,0C5.7,0.8,6,1,6,1s0.3,0.2,0.4,0.5C7,3.3,8,4.9,8,4.9c1.6,3.2,2.6,3.8,3.2,3.4c0,0,0.8-0.5,0.6-4.4
		c-0.1-1.4-0.5-2-0.5-2c-0.4-0.5-1-0.6-1.3-0.7c-0.2,0,0.2-0.6,0.7-0.8C11.5,0,12.8,0,14.4,0c1.3,0,1.6,0.1,2.1,0.2
		c1.5,0.4,1,1.7,1,5c0,1.1-0.2,2.5,0.6,3c0.3,0.2,1.1,0,3.1-3.4c0,0,0.9-1.6,1.7-3.5C23,1,23.3,0.9,23.3,0.9s0.3-0.1,0.6-0.1l4.5,0
		C29.8,0.6,30,1.2,30,1.2C30.2,1.9,29.5,3.4,27.6,5.8z"/>
</g>
</svg>
